<mxfile host="Electron" modified="2023-06-20T19:21:28.083Z" agent="Mozilla/5.0 (X11; Linux x86_64) AppleWebKit/537.36 (KHTML, like Gecko) draw.io/21.5.0 Chrome/112.0.5615.204 Electron/24.5.1 Safari/537.36" etag="43uVhdL4r3Tdry9B5VLr" version="21.5.0" type="device">
  <diagram name="Page-1" id="FEe-Y_rV9cziCGvtWo6F">
    <mxGraphModel dx="1371" dy="337" grid="1" gridSize="10" guides="1" tooltips="1" connect="1" arrows="1" fold="1" page="1" pageScale="1" pageWidth="827" pageHeight="1169" math="0" shadow="0">
      <root>
        <mxCell id="0" />
        <mxCell id="1" parent="0" />
        <mxCell id="I6M3-v00xLzkXQpwjqU5-147" value="" style="rounded=0;whiteSpace=wrap;html=1;" vertex="1" parent="1">
          <mxGeometry x="10" y="90" width="620" height="370" as="geometry" />
        </mxCell>
        <mxCell id="I6M3-v00xLzkXQpwjqU5-3" value="" style="endArrow=none;html=1;rounded=0;" edge="1" parent="1">
          <mxGeometry width="50" height="50" relative="1" as="geometry">
            <mxPoint x="-190" y="200" as="sourcePoint" />
            <mxPoint x="-30" y="120" as="targetPoint" />
          </mxGeometry>
        </mxCell>
        <mxCell id="I6M3-v00xLzkXQpwjqU5-5" value="" style="endArrow=none;html=1;rounded=0;" edge="1" parent="1">
          <mxGeometry width="50" height="50" relative="1" as="geometry">
            <mxPoint x="-190" y="360" as="sourcePoint" />
            <mxPoint x="-30" y="280" as="targetPoint" />
          </mxGeometry>
        </mxCell>
        <mxCell id="I6M3-v00xLzkXQpwjqU5-6" value="" style="endArrow=none;html=1;rounded=0;" edge="1" parent="1">
          <mxGeometry width="50" height="50" relative="1" as="geometry">
            <mxPoint x="-190" y="200" as="sourcePoint" />
            <mxPoint x="-190" y="360" as="targetPoint" />
          </mxGeometry>
        </mxCell>
        <mxCell id="I6M3-v00xLzkXQpwjqU5-7" value="" style="endArrow=none;html=1;rounded=0;" edge="1" parent="1">
          <mxGeometry width="50" height="50" relative="1" as="geometry">
            <mxPoint x="-30" y="120" as="sourcePoint" />
            <mxPoint x="-30" y="280" as="targetPoint" />
          </mxGeometry>
        </mxCell>
        <mxCell id="I6M3-v00xLzkXQpwjqU5-8" value="" style="endArrow=none;html=1;rounded=0;" edge="1" parent="1">
          <mxGeometry width="50" height="50" relative="1" as="geometry">
            <mxPoint x="-150" y="180" as="sourcePoint" />
            <mxPoint x="-150" y="340" as="targetPoint" />
          </mxGeometry>
        </mxCell>
        <mxCell id="I6M3-v00xLzkXQpwjqU5-9" value="" style="endArrow=none;html=1;rounded=0;" edge="1" parent="1">
          <mxGeometry width="50" height="50" relative="1" as="geometry">
            <mxPoint x="-110" y="160" as="sourcePoint" />
            <mxPoint x="-110" y="320" as="targetPoint" />
          </mxGeometry>
        </mxCell>
        <mxCell id="I6M3-v00xLzkXQpwjqU5-10" value="" style="endArrow=none;html=1;rounded=0;" edge="1" parent="1">
          <mxGeometry width="50" height="50" relative="1" as="geometry">
            <mxPoint x="-70" y="140" as="sourcePoint" />
            <mxPoint x="-70" y="300" as="targetPoint" />
          </mxGeometry>
        </mxCell>
        <mxCell id="I6M3-v00xLzkXQpwjqU5-11" value="" style="endArrow=none;html=1;rounded=0;" edge="1" parent="1">
          <mxGeometry width="50" height="50" relative="1" as="geometry">
            <mxPoint x="-190" y="320" as="sourcePoint" />
            <mxPoint x="-30" y="240" as="targetPoint" />
          </mxGeometry>
        </mxCell>
        <mxCell id="I6M3-v00xLzkXQpwjqU5-12" value="" style="endArrow=none;html=1;rounded=0;" edge="1" parent="1">
          <mxGeometry width="50" height="50" relative="1" as="geometry">
            <mxPoint x="-190" y="280" as="sourcePoint" />
            <mxPoint x="-30" y="200" as="targetPoint" />
          </mxGeometry>
        </mxCell>
        <mxCell id="I6M3-v00xLzkXQpwjqU5-13" value="" style="endArrow=none;html=1;rounded=0;" edge="1" parent="1">
          <mxGeometry width="50" height="50" relative="1" as="geometry">
            <mxPoint x="-190" y="240" as="sourcePoint" />
            <mxPoint x="-30" y="160" as="targetPoint" />
          </mxGeometry>
        </mxCell>
        <mxCell id="I6M3-v00xLzkXQpwjqU5-15" value="" style="endArrow=none;html=1;rounded=0;" edge="1" parent="1">
          <mxGeometry width="50" height="50" relative="1" as="geometry">
            <mxPoint x="-50" y="130" as="sourcePoint" />
            <mxPoint x="-50" y="290" as="targetPoint" />
          </mxGeometry>
        </mxCell>
        <mxCell id="I6M3-v00xLzkXQpwjqU5-16" value="" style="endArrow=none;html=1;rounded=0;" edge="1" parent="1">
          <mxGeometry width="50" height="50" relative="1" as="geometry">
            <mxPoint x="-170" y="190" as="sourcePoint" />
            <mxPoint x="-170" y="350" as="targetPoint" />
          </mxGeometry>
        </mxCell>
        <mxCell id="I6M3-v00xLzkXQpwjqU5-17" value="" style="endArrow=none;html=1;rounded=0;" edge="1" parent="1">
          <mxGeometry width="50" height="50" relative="1" as="geometry">
            <mxPoint x="-130" y="170" as="sourcePoint" />
            <mxPoint x="-130" y="330" as="targetPoint" />
          </mxGeometry>
        </mxCell>
        <mxCell id="I6M3-v00xLzkXQpwjqU5-18" value="" style="endArrow=none;html=1;rounded=0;" edge="1" parent="1">
          <mxGeometry width="50" height="50" relative="1" as="geometry">
            <mxPoint x="-90" y="150" as="sourcePoint" />
            <mxPoint x="-90" y="310" as="targetPoint" />
          </mxGeometry>
        </mxCell>
        <mxCell id="I6M3-v00xLzkXQpwjqU5-19" value="" style="endArrow=none;html=1;rounded=0;" edge="1" parent="1">
          <mxGeometry width="50" height="50" relative="1" as="geometry">
            <mxPoint x="-190" y="340" as="sourcePoint" />
            <mxPoint x="-30" y="260" as="targetPoint" />
          </mxGeometry>
        </mxCell>
        <mxCell id="I6M3-v00xLzkXQpwjqU5-20" value="" style="endArrow=none;html=1;rounded=0;" edge="1" parent="1">
          <mxGeometry width="50" height="50" relative="1" as="geometry">
            <mxPoint x="-190" y="300" as="sourcePoint" />
            <mxPoint x="-30" y="220" as="targetPoint" />
          </mxGeometry>
        </mxCell>
        <mxCell id="I6M3-v00xLzkXQpwjqU5-21" value="" style="endArrow=none;html=1;rounded=0;" edge="1" parent="1">
          <mxGeometry width="50" height="50" relative="1" as="geometry">
            <mxPoint x="-190" y="260" as="sourcePoint" />
            <mxPoint x="-30" y="180" as="targetPoint" />
          </mxGeometry>
        </mxCell>
        <mxCell id="I6M3-v00xLzkXQpwjqU5-22" value="" style="endArrow=none;html=1;rounded=0;" edge="1" parent="1">
          <mxGeometry width="50" height="50" relative="1" as="geometry">
            <mxPoint x="-190" y="220" as="sourcePoint" />
            <mxPoint x="-30" y="140" as="targetPoint" />
          </mxGeometry>
        </mxCell>
        <mxCell id="I6M3-v00xLzkXQpwjqU5-31" value="" style="shape=trapezoid;perimeter=trapezoidPerimeter;whiteSpace=wrap;html=1;fixedSize=1;rotation=90;fillColor=none;strokeColor=default;" vertex="1" parent="1">
          <mxGeometry x="55" y="210" width="110" height="70" as="geometry" />
        </mxCell>
        <mxCell id="I6M3-v00xLzkXQpwjqU5-33" value="" style="shape=trapezoid;perimeter=trapezoidPerimeter;whiteSpace=wrap;html=1;fixedSize=1;rotation=90;" vertex="1" parent="1">
          <mxGeometry x="20" y="225" width="110" height="90" as="geometry" />
        </mxCell>
        <mxCell id="I6M3-v00xLzkXQpwjqU5-34" value="" style="endArrow=none;html=1;rounded=0;exitX=0.188;exitY=0.012;exitDx=0;exitDy=0;exitPerimeter=0;" edge="1" parent="1" source="I6M3-v00xLzkXQpwjqU5-33">
          <mxGeometry width="50" height="50" relative="1" as="geometry">
            <mxPoint x="185" y="210" as="sourcePoint" />
            <mxPoint x="145" y="210" as="targetPoint" />
          </mxGeometry>
        </mxCell>
        <mxCell id="I6M3-v00xLzkXQpwjqU5-35" value="" style="endArrow=none;html=1;rounded=0;exitX=0.825;exitY=0.006;exitDx=0;exitDy=0;exitPerimeter=0;" edge="1" parent="1" source="I6M3-v00xLzkXQpwjqU5-33">
          <mxGeometry width="50" height="50" relative="1" as="geometry">
            <mxPoint x="125" y="300" as="sourcePoint" />
            <mxPoint x="145" y="280" as="targetPoint" />
          </mxGeometry>
        </mxCell>
        <mxCell id="I6M3-v00xLzkXQpwjqU5-36" value="" style="endArrow=none;html=1;rounded=0;exitX=0;exitY=1;exitDx=0;exitDy=0;" edge="1" parent="1" source="I6M3-v00xLzkXQpwjqU5-33">
          <mxGeometry width="50" height="50" relative="1" as="geometry">
            <mxPoint x="45" y="220" as="sourcePoint" />
            <mxPoint x="75" y="190" as="targetPoint" />
          </mxGeometry>
        </mxCell>
        <mxCell id="I6M3-v00xLzkXQpwjqU5-37" value="" style="endArrow=none;html=1;rounded=0;dashed=1;entryX=0;entryY=1;entryDx=0;entryDy=0;" edge="1" parent="1" target="I6M3-v00xLzkXQpwjqU5-33">
          <mxGeometry width="50" height="50" relative="1" as="geometry">
            <mxPoint x="-190" y="200" as="sourcePoint" />
            <mxPoint x="30" y="190" as="targetPoint" />
          </mxGeometry>
        </mxCell>
        <mxCell id="I6M3-v00xLzkXQpwjqU5-38" value="" style="endArrow=none;html=1;rounded=0;dashed=1;entryX=0;entryY=1;entryDx=0;entryDy=0;" edge="1" parent="1" target="I6M3-v00xLzkXQpwjqU5-31">
          <mxGeometry width="50" height="50" relative="1" as="geometry">
            <mxPoint x="-30" y="120" as="sourcePoint" />
            <mxPoint x="40" y="200" as="targetPoint" />
          </mxGeometry>
        </mxCell>
        <mxCell id="I6M3-v00xLzkXQpwjqU5-39" value="" style="endArrow=none;html=1;rounded=0;dashed=1;entryX=0.82;entryY=1.009;entryDx=0;entryDy=0;entryPerimeter=0;" edge="1" parent="1" target="I6M3-v00xLzkXQpwjqU5-33">
          <mxGeometry width="50" height="50" relative="1" as="geometry">
            <mxPoint x="-30" y="280" as="sourcePoint" />
            <mxPoint x="90" y="330" as="targetPoint" />
          </mxGeometry>
        </mxCell>
        <mxCell id="I6M3-v00xLzkXQpwjqU5-40" value="" style="endArrow=none;html=1;rounded=0;dashed=1;entryX=1;entryY=1;entryDx=0;entryDy=0;" edge="1" parent="1" target="I6M3-v00xLzkXQpwjqU5-33">
          <mxGeometry width="50" height="50" relative="1" as="geometry">
            <mxPoint x="-190" y="360" as="sourcePoint" />
            <mxPoint x="35" y="195" as="targetPoint" />
          </mxGeometry>
        </mxCell>
        <mxCell id="I6M3-v00xLzkXQpwjqU5-41" value="" style="endArrow=none;html=1;rounded=0;" edge="1" parent="1">
          <mxGeometry width="50" height="50" relative="1" as="geometry">
            <mxPoint x="260" y="319.67" as="sourcePoint" />
            <mxPoint x="260" y="239.67000000000002" as="targetPoint" />
          </mxGeometry>
        </mxCell>
        <mxCell id="I6M3-v00xLzkXQpwjqU5-42" value="" style="endArrow=none;html=1;rounded=0;" edge="1" parent="1">
          <mxGeometry width="50" height="50" relative="1" as="geometry">
            <mxPoint x="340" y="279.67" as="sourcePoint" />
            <mxPoint x="340" y="199.67000000000002" as="targetPoint" />
          </mxGeometry>
        </mxCell>
        <mxCell id="I6M3-v00xLzkXQpwjqU5-43" value="" style="endArrow=none;html=1;rounded=0;" edge="1" parent="1">
          <mxGeometry width="50" height="50" relative="1" as="geometry">
            <mxPoint x="260" y="239.67000000000002" as="sourcePoint" />
            <mxPoint x="340" y="199.67000000000002" as="targetPoint" />
          </mxGeometry>
        </mxCell>
        <mxCell id="I6M3-v00xLzkXQpwjqU5-44" value="" style="endArrow=none;html=1;rounded=0;" edge="1" parent="1">
          <mxGeometry width="50" height="50" relative="1" as="geometry">
            <mxPoint x="260" y="319.67" as="sourcePoint" />
            <mxPoint x="340" y="279.67" as="targetPoint" />
          </mxGeometry>
        </mxCell>
        <mxCell id="I6M3-v00xLzkXQpwjqU5-45" value="" style="endArrow=none;html=1;rounded=0;" edge="1" parent="1">
          <mxGeometry width="50" height="50" relative="1" as="geometry">
            <mxPoint x="260" y="279.67" as="sourcePoint" />
            <mxPoint x="340" y="239.67000000000002" as="targetPoint" />
          </mxGeometry>
        </mxCell>
        <mxCell id="I6M3-v00xLzkXQpwjqU5-46" value="" style="endArrow=none;html=1;rounded=0;" edge="1" parent="1">
          <mxGeometry width="50" height="50" relative="1" as="geometry">
            <mxPoint x="300" y="299.67" as="sourcePoint" />
            <mxPoint x="300" y="219.67000000000002" as="targetPoint" />
          </mxGeometry>
        </mxCell>
        <mxCell id="I6M3-v00xLzkXQpwjqU5-47" value="" style="endArrow=none;html=1;rounded=0;" edge="1" parent="1">
          <mxGeometry width="50" height="50" relative="1" as="geometry">
            <mxPoint x="260" y="299.67" as="sourcePoint" />
            <mxPoint x="340" y="259.67" as="targetPoint" />
          </mxGeometry>
        </mxCell>
        <mxCell id="I6M3-v00xLzkXQpwjqU5-48" value="" style="endArrow=none;html=1;rounded=0;" edge="1" parent="1">
          <mxGeometry width="50" height="50" relative="1" as="geometry">
            <mxPoint x="260" y="259.67" as="sourcePoint" />
            <mxPoint x="340" y="219.67000000000002" as="targetPoint" />
          </mxGeometry>
        </mxCell>
        <mxCell id="I6M3-v00xLzkXQpwjqU5-49" value="" style="endArrow=none;html=1;rounded=0;" edge="1" parent="1">
          <mxGeometry width="50" height="50" relative="1" as="geometry">
            <mxPoint x="320" y="289.67" as="sourcePoint" />
            <mxPoint x="320" y="209.67000000000002" as="targetPoint" />
          </mxGeometry>
        </mxCell>
        <mxCell id="I6M3-v00xLzkXQpwjqU5-50" value="" style="endArrow=none;html=1;rounded=0;" edge="1" parent="1">
          <mxGeometry width="50" height="50" relative="1" as="geometry">
            <mxPoint x="280" y="309.67" as="sourcePoint" />
            <mxPoint x="280" y="229.67000000000002" as="targetPoint" />
          </mxGeometry>
        </mxCell>
        <mxCell id="I6M3-v00xLzkXQpwjqU5-51" value="" style="endArrow=none;html=1;rounded=0;" edge="1" parent="1">
          <mxGeometry width="50" height="50" relative="1" as="geometry">
            <mxPoint x="180" y="239.67000000000002" as="sourcePoint" />
            <mxPoint x="260" y="239.67000000000002" as="targetPoint" />
          </mxGeometry>
        </mxCell>
        <mxCell id="I6M3-v00xLzkXQpwjqU5-52" value="" style="endArrow=none;html=1;rounded=0;" edge="1" parent="1">
          <mxGeometry width="50" height="50" relative="1" as="geometry">
            <mxPoint x="180" y="239.67000000000002" as="sourcePoint" />
            <mxPoint x="200" y="229.67000000000002" as="targetPoint" />
          </mxGeometry>
        </mxCell>
        <mxCell id="I6M3-v00xLzkXQpwjqU5-53" value="" style="endArrow=none;html=1;rounded=0;" edge="1" parent="1">
          <mxGeometry width="50" height="50" relative="1" as="geometry">
            <mxPoint x="200" y="229.67000000000002" as="sourcePoint" />
            <mxPoint x="280" y="229.67000000000002" as="targetPoint" />
          </mxGeometry>
        </mxCell>
        <mxCell id="I6M3-v00xLzkXQpwjqU5-54" value="" style="endArrow=none;html=1;rounded=0;" edge="1" parent="1">
          <mxGeometry width="50" height="50" relative="1" as="geometry">
            <mxPoint x="180" y="319.67" as="sourcePoint" />
            <mxPoint x="180" y="239.67000000000002" as="targetPoint" />
          </mxGeometry>
        </mxCell>
        <mxCell id="I6M3-v00xLzkXQpwjqU5-55" value="" style="endArrow=none;html=1;rounded=0;" edge="1" parent="1">
          <mxGeometry width="50" height="50" relative="1" as="geometry">
            <mxPoint x="200" y="229.67000000000002" as="sourcePoint" />
            <mxPoint x="260" y="199.67000000000002" as="targetPoint" />
          </mxGeometry>
        </mxCell>
        <mxCell id="I6M3-v00xLzkXQpwjqU5-56" value="" style="endArrow=none;html=1;rounded=0;" edge="1" parent="1">
          <mxGeometry width="50" height="50" relative="1" as="geometry">
            <mxPoint x="220" y="219.67000000000002" as="sourcePoint" />
            <mxPoint x="300" y="219.67000000000002" as="targetPoint" />
          </mxGeometry>
        </mxCell>
        <mxCell id="I6M3-v00xLzkXQpwjqU5-57" value="" style="endArrow=none;html=1;rounded=0;" edge="1" parent="1">
          <mxGeometry width="50" height="50" relative="1" as="geometry">
            <mxPoint x="240" y="209.67000000000002" as="sourcePoint" />
            <mxPoint x="320" y="209.67000000000002" as="targetPoint" />
          </mxGeometry>
        </mxCell>
        <mxCell id="I6M3-v00xLzkXQpwjqU5-58" value="" style="endArrow=none;html=1;rounded=0;" edge="1" parent="1">
          <mxGeometry width="50" height="50" relative="1" as="geometry">
            <mxPoint x="260" y="199.67000000000002" as="sourcePoint" />
            <mxPoint x="340" y="199.67000000000002" as="targetPoint" />
          </mxGeometry>
        </mxCell>
        <mxCell id="I6M3-v00xLzkXQpwjqU5-59" value="" style="endArrow=none;html=1;rounded=0;" edge="1" parent="1">
          <mxGeometry width="50" height="50" relative="1" as="geometry">
            <mxPoint x="180" y="259.67" as="sourcePoint" />
            <mxPoint x="260" y="259.67" as="targetPoint" />
          </mxGeometry>
        </mxCell>
        <mxCell id="I6M3-v00xLzkXQpwjqU5-60" value="" style="endArrow=none;html=1;rounded=0;" edge="1" parent="1">
          <mxGeometry width="50" height="50" relative="1" as="geometry">
            <mxPoint x="180" y="279.67" as="sourcePoint" />
            <mxPoint x="260" y="279.67" as="targetPoint" />
          </mxGeometry>
        </mxCell>
        <mxCell id="I6M3-v00xLzkXQpwjqU5-61" value="" style="endArrow=none;html=1;rounded=0;" edge="1" parent="1">
          <mxGeometry width="50" height="50" relative="1" as="geometry">
            <mxPoint x="180" y="299.67" as="sourcePoint" />
            <mxPoint x="260" y="299.67" as="targetPoint" />
          </mxGeometry>
        </mxCell>
        <mxCell id="I6M3-v00xLzkXQpwjqU5-62" value="" style="endArrow=none;html=1;rounded=0;" edge="1" parent="1">
          <mxGeometry width="50" height="50" relative="1" as="geometry">
            <mxPoint x="180" y="319.67" as="sourcePoint" />
            <mxPoint x="260" y="319.67" as="targetPoint" />
          </mxGeometry>
        </mxCell>
        <mxCell id="I6M3-v00xLzkXQpwjqU5-73" value="a&lt;sub&gt;1&lt;/sub&gt;" style="text;html=1;strokeColor=none;fillColor=none;align=center;verticalAlign=middle;whiteSpace=wrap;rounded=0;" vertex="1" parent="1">
          <mxGeometry x="260" y="235" width="20" height="20" as="geometry" />
        </mxCell>
        <mxCell id="I6M3-v00xLzkXQpwjqU5-74" value="a&lt;span style=&quot;font-size: 10px;&quot;&gt;&lt;sub&gt;2&lt;/sub&gt;&lt;/span&gt;" style="text;html=1;strokeColor=none;fillColor=none;align=center;verticalAlign=middle;whiteSpace=wrap;rounded=0;" vertex="1" parent="1">
          <mxGeometry x="280" y="225" width="20" height="20" as="geometry" />
        </mxCell>
        <mxCell id="I6M3-v00xLzkXQpwjqU5-75" value="a&lt;span style=&quot;font-size: 8.33333px;&quot;&gt;&lt;sub&gt;L&lt;/sub&gt;&lt;/span&gt;" style="text;html=1;strokeColor=none;fillColor=none;align=center;verticalAlign=middle;whiteSpace=wrap;rounded=0;" vertex="1" parent="1">
          <mxGeometry x="320" y="265" width="20" height="20" as="geometry" />
        </mxCell>
        <mxCell id="I6M3-v00xLzkXQpwjqU5-76" value="" style="endArrow=classic;startArrow=classic;html=1;rounded=0;" edge="1" parent="1">
          <mxGeometry width="50" height="50" relative="1" as="geometry">
            <mxPoint x="370" y="280" as="sourcePoint" />
            <mxPoint x="370" y="200" as="targetPoint" />
          </mxGeometry>
        </mxCell>
        <mxCell id="I6M3-v00xLzkXQpwjqU5-77" value="" style="endArrow=classic;startArrow=classic;html=1;rounded=0;" edge="1" parent="1">
          <mxGeometry width="50" height="50" relative="1" as="geometry">
            <mxPoint x="290" y="320" as="sourcePoint" />
            <mxPoint x="360" y="280" as="targetPoint" />
          </mxGeometry>
        </mxCell>
        <mxCell id="I6M3-v00xLzkXQpwjqU5-78" value="" style="endArrow=classic;startArrow=classic;html=1;rounded=0;" edge="1" parent="1">
          <mxGeometry width="50" height="50" relative="1" as="geometry">
            <mxPoint x="180" y="330" as="sourcePoint" />
            <mxPoint x="260" y="330" as="targetPoint" />
          </mxGeometry>
        </mxCell>
        <mxCell id="I6M3-v00xLzkXQpwjqU5-79" value="D" style="text;html=1;strokeColor=none;fillColor=none;align=center;verticalAlign=middle;whiteSpace=wrap;rounded=0;" vertex="1" parent="1">
          <mxGeometry x="190" y="330" width="60" height="30" as="geometry" />
        </mxCell>
        <mxCell id="I6M3-v00xLzkXQpwjqU5-80" value="W" style="text;html=1;strokeColor=none;fillColor=none;align=center;verticalAlign=middle;whiteSpace=wrap;rounded=0;" vertex="1" parent="1">
          <mxGeometry x="310" y="290" width="60" height="30" as="geometry" />
        </mxCell>
        <mxCell id="I6M3-v00xLzkXQpwjqU5-81" value="H" style="text;html=1;strokeColor=none;fillColor=none;align=center;verticalAlign=middle;whiteSpace=wrap;rounded=0;" vertex="1" parent="1">
          <mxGeometry x="350" y="225" width="60" height="30" as="geometry" />
        </mxCell>
        <mxCell id="I6M3-v00xLzkXQpwjqU5-82" value="" style="shape=flexArrow;endArrow=classic;html=1;rounded=0;" edge="1" parent="1">
          <mxGeometry width="50" height="50" relative="1" as="geometry">
            <mxPoint x="400" y="265" as="sourcePoint" />
            <mxPoint x="470" y="265" as="targetPoint" />
          </mxGeometry>
        </mxCell>
        <mxCell id="I6M3-v00xLzkXQpwjqU5-83" value="" style="endArrow=none;html=1;rounded=0;" edge="1" parent="1">
          <mxGeometry width="50" height="50" relative="1" as="geometry">
            <mxPoint x="590" y="370" as="sourcePoint" />
            <mxPoint x="590" y="170" as="targetPoint" />
          </mxGeometry>
        </mxCell>
        <mxCell id="I6M3-v00xLzkXQpwjqU5-84" value="" style="endArrow=none;html=1;rounded=0;" edge="1" parent="1">
          <mxGeometry width="50" height="50" relative="1" as="geometry">
            <mxPoint x="610" y="360" as="sourcePoint" />
            <mxPoint x="610" y="160" as="targetPoint" />
          </mxGeometry>
        </mxCell>
        <mxCell id="I6M3-v00xLzkXQpwjqU5-87" value="" style="endArrow=none;html=1;rounded=0;" edge="1" parent="1">
          <mxGeometry width="50" height="50" relative="1" as="geometry">
            <mxPoint x="590" y="170.4" as="sourcePoint" />
            <mxPoint x="610" y="160.4" as="targetPoint" />
          </mxGeometry>
        </mxCell>
        <mxCell id="I6M3-v00xLzkXQpwjqU5-89" value="" style="endArrow=none;html=1;rounded=0;" edge="1" parent="1">
          <mxGeometry width="50" height="50" relative="1" as="geometry">
            <mxPoint x="510" y="160.4" as="sourcePoint" />
            <mxPoint x="610" y="160.4" as="targetPoint" />
          </mxGeometry>
        </mxCell>
        <mxCell id="I6M3-v00xLzkXQpwjqU5-91" value="" style="endArrow=none;html=1;rounded=0;" edge="1" parent="1">
          <mxGeometry width="50" height="50" relative="1" as="geometry">
            <mxPoint x="490" y="170.4" as="sourcePoint" />
            <mxPoint x="590" y="170.4" as="targetPoint" />
          </mxGeometry>
        </mxCell>
        <mxCell id="I6M3-v00xLzkXQpwjqU5-92" value="" style="endArrow=none;html=1;rounded=0;" edge="1" parent="1">
          <mxGeometry width="50" height="50" relative="1" as="geometry">
            <mxPoint x="490" y="170.4" as="sourcePoint" />
            <mxPoint x="510" y="160.4" as="targetPoint" />
          </mxGeometry>
        </mxCell>
        <mxCell id="I6M3-v00xLzkXQpwjqU5-93" value="" style="endArrow=none;html=1;rounded=0;" edge="1" parent="1">
          <mxGeometry width="50" height="50" relative="1" as="geometry">
            <mxPoint x="490" y="370.4" as="sourcePoint" />
            <mxPoint x="490" y="170.4" as="targetPoint" />
          </mxGeometry>
        </mxCell>
        <mxCell id="I6M3-v00xLzkXQpwjqU5-94" value="" style="endArrow=none;html=1;rounded=0;" edge="1" parent="1">
          <mxGeometry width="50" height="50" relative="1" as="geometry">
            <mxPoint x="490" y="190.4" as="sourcePoint" />
            <mxPoint x="590" y="190.4" as="targetPoint" />
          </mxGeometry>
        </mxCell>
        <mxCell id="I6M3-v00xLzkXQpwjqU5-95" value="" style="endArrow=none;html=1;rounded=0;" edge="1" parent="1">
          <mxGeometry width="50" height="50" relative="1" as="geometry">
            <mxPoint x="490" y="370.4" as="sourcePoint" />
            <mxPoint x="590" y="370.4" as="targetPoint" />
          </mxGeometry>
        </mxCell>
        <mxCell id="I6M3-v00xLzkXQpwjqU5-96" value="" style="endArrow=none;html=1;rounded=0;" edge="1" parent="1">
          <mxGeometry width="50" height="50" relative="1" as="geometry">
            <mxPoint x="490" y="210.4" as="sourcePoint" />
            <mxPoint x="590" y="210.4" as="targetPoint" />
          </mxGeometry>
        </mxCell>
        <mxCell id="I6M3-v00xLzkXQpwjqU5-97" value="" style="endArrow=none;html=1;rounded=0;" edge="1" parent="1">
          <mxGeometry width="50" height="50" relative="1" as="geometry">
            <mxPoint x="490" y="230.4" as="sourcePoint" />
            <mxPoint x="590" y="230.4" as="targetPoint" />
          </mxGeometry>
        </mxCell>
        <mxCell id="I6M3-v00xLzkXQpwjqU5-98" value="" style="endArrow=none;html=1;rounded=0;" edge="1" parent="1">
          <mxGeometry width="50" height="50" relative="1" as="geometry">
            <mxPoint x="490" y="250.07000000000002" as="sourcePoint" />
            <mxPoint x="590" y="250.07000000000002" as="targetPoint" />
          </mxGeometry>
        </mxCell>
        <mxCell id="I6M3-v00xLzkXQpwjqU5-99" value="" style="endArrow=none;html=1;rounded=0;" edge="1" parent="1">
          <mxGeometry width="50" height="50" relative="1" as="geometry">
            <mxPoint x="490" y="270.07" as="sourcePoint" />
            <mxPoint x="590" y="270.07" as="targetPoint" />
          </mxGeometry>
        </mxCell>
        <mxCell id="I6M3-v00xLzkXQpwjqU5-100" value="" style="endArrow=none;html=1;rounded=0;" edge="1" parent="1">
          <mxGeometry width="50" height="50" relative="1" as="geometry">
            <mxPoint x="490" y="290.07" as="sourcePoint" />
            <mxPoint x="590" y="290.07" as="targetPoint" />
          </mxGeometry>
        </mxCell>
        <mxCell id="I6M3-v00xLzkXQpwjqU5-101" value="" style="endArrow=none;html=1;rounded=0;" edge="1" parent="1">
          <mxGeometry width="50" height="50" relative="1" as="geometry">
            <mxPoint x="490" y="310.4" as="sourcePoint" />
            <mxPoint x="590" y="310.4" as="targetPoint" />
          </mxGeometry>
        </mxCell>
        <mxCell id="I6M3-v00xLzkXQpwjqU5-102" value="" style="endArrow=none;html=1;rounded=0;" edge="1" parent="1">
          <mxGeometry width="50" height="50" relative="1" as="geometry">
            <mxPoint x="490" y="330.4" as="sourcePoint" />
            <mxPoint x="590" y="330.4" as="targetPoint" />
          </mxGeometry>
        </mxCell>
        <mxCell id="I6M3-v00xLzkXQpwjqU5-103" value="" style="endArrow=none;html=1;rounded=0;" edge="1" parent="1">
          <mxGeometry width="50" height="50" relative="1" as="geometry">
            <mxPoint x="490" y="350.4" as="sourcePoint" />
            <mxPoint x="590" y="350.4" as="targetPoint" />
          </mxGeometry>
        </mxCell>
        <mxCell id="I6M3-v00xLzkXQpwjqU5-104" value="" style="endArrow=none;html=1;rounded=0;" edge="1" parent="1">
          <mxGeometry width="50" height="50" relative="1" as="geometry">
            <mxPoint x="590" y="370.4" as="sourcePoint" />
            <mxPoint x="610" y="360.4" as="targetPoint" />
          </mxGeometry>
        </mxCell>
        <mxCell id="I6M3-v00xLzkXQpwjqU5-105" value="" style="endArrow=none;html=1;rounded=0;" edge="1" parent="1">
          <mxGeometry width="50" height="50" relative="1" as="geometry">
            <mxPoint x="590" y="350.4" as="sourcePoint" />
            <mxPoint x="610" y="340.4" as="targetPoint" />
          </mxGeometry>
        </mxCell>
        <mxCell id="I6M3-v00xLzkXQpwjqU5-106" value="" style="endArrow=none;html=1;rounded=0;" edge="1" parent="1">
          <mxGeometry width="50" height="50" relative="1" as="geometry">
            <mxPoint x="590" y="330.4" as="sourcePoint" />
            <mxPoint x="610" y="320.4" as="targetPoint" />
          </mxGeometry>
        </mxCell>
        <mxCell id="I6M3-v00xLzkXQpwjqU5-107" value="" style="endArrow=none;html=1;rounded=0;" edge="1" parent="1">
          <mxGeometry width="50" height="50" relative="1" as="geometry">
            <mxPoint x="590" y="310.4" as="sourcePoint" />
            <mxPoint x="610" y="300.4" as="targetPoint" />
          </mxGeometry>
        </mxCell>
        <mxCell id="I6M3-v00xLzkXQpwjqU5-108" value="" style="endArrow=none;html=1;rounded=0;" edge="1" parent="1">
          <mxGeometry width="50" height="50" relative="1" as="geometry">
            <mxPoint x="590" y="290.4" as="sourcePoint" />
            <mxPoint x="610" y="280.4" as="targetPoint" />
          </mxGeometry>
        </mxCell>
        <mxCell id="I6M3-v00xLzkXQpwjqU5-109" value="" style="endArrow=none;html=1;rounded=0;" edge="1" parent="1">
          <mxGeometry width="50" height="50" relative="1" as="geometry">
            <mxPoint x="590" y="270.4" as="sourcePoint" />
            <mxPoint x="610" y="260.4" as="targetPoint" />
          </mxGeometry>
        </mxCell>
        <mxCell id="I6M3-v00xLzkXQpwjqU5-110" value="" style="endArrow=none;html=1;rounded=0;" edge="1" parent="1">
          <mxGeometry width="50" height="50" relative="1" as="geometry">
            <mxPoint x="590" y="250.4" as="sourcePoint" />
            <mxPoint x="610" y="240.4" as="targetPoint" />
          </mxGeometry>
        </mxCell>
        <mxCell id="I6M3-v00xLzkXQpwjqU5-111" value="" style="endArrow=none;html=1;rounded=0;" edge="1" parent="1">
          <mxGeometry width="50" height="50" relative="1" as="geometry">
            <mxPoint x="590" y="230.4" as="sourcePoint" />
            <mxPoint x="610" y="220.4" as="targetPoint" />
          </mxGeometry>
        </mxCell>
        <mxCell id="I6M3-v00xLzkXQpwjqU5-112" value="" style="endArrow=none;html=1;rounded=0;" edge="1" parent="1">
          <mxGeometry width="50" height="50" relative="1" as="geometry">
            <mxPoint x="590" y="210.4" as="sourcePoint" />
            <mxPoint x="610" y="200.4" as="targetPoint" />
          </mxGeometry>
        </mxCell>
        <mxCell id="I6M3-v00xLzkXQpwjqU5-113" value="" style="endArrow=none;html=1;rounded=0;" edge="1" parent="1">
          <mxGeometry width="50" height="50" relative="1" as="geometry">
            <mxPoint x="590" y="190.4" as="sourcePoint" />
            <mxPoint x="610" y="180.4" as="targetPoint" />
          </mxGeometry>
        </mxCell>
        <mxCell id="I6M3-v00xLzkXQpwjqU5-141" value="Local Context Vectors" style="text;html=1;strokeColor=none;fillColor=none;align=center;verticalAlign=middle;whiteSpace=wrap;rounded=0;" vertex="1" parent="1">
          <mxGeometry x="510" y="120" width="100" height="30" as="geometry" />
        </mxCell>
        <mxCell id="I6M3-v00xLzkXQpwjqU5-142" value="a&lt;sub&gt;1&lt;/sub&gt;" style="text;html=1;strokeColor=none;fillColor=none;align=center;verticalAlign=middle;whiteSpace=wrap;rounded=0;" vertex="1" parent="1">
          <mxGeometry x="530" y="170" width="20" height="20" as="geometry" />
        </mxCell>
        <mxCell id="I6M3-v00xLzkXQpwjqU5-143" value="a&lt;span style=&quot;font-size: 10px;&quot;&gt;&lt;sub&gt;2&lt;/sub&gt;&lt;/span&gt;" style="text;html=1;strokeColor=none;fillColor=none;align=center;verticalAlign=middle;whiteSpace=wrap;rounded=0;" vertex="1" parent="1">
          <mxGeometry x="530" y="190" width="20" height="20" as="geometry" />
        </mxCell>
        <mxCell id="I6M3-v00xLzkXQpwjqU5-145" value="a&lt;span style=&quot;font-size: 8.33333px;&quot;&gt;&lt;sub&gt;L&lt;/sub&gt;&lt;/span&gt;" style="text;html=1;strokeColor=none;fillColor=none;align=center;verticalAlign=middle;whiteSpace=wrap;rounded=0;" vertex="1" parent="1">
          <mxGeometry x="530" y="350" width="20" height="20" as="geometry" />
        </mxCell>
        <mxCell id="I6M3-v00xLzkXQpwjqU5-148" value="&lt;font style=&quot;font-size: 16px;&quot;&gt;ENCODER&lt;/font&gt;" style="text;html=1;strokeColor=none;fillColor=#d5e8d4;align=center;verticalAlign=middle;whiteSpace=wrap;rounded=1;" vertex="1" parent="1">
          <mxGeometry x="220" y="100" width="130" height="30" as="geometry" />
        </mxCell>
        <mxCell id="I6M3-v00xLzkXQpwjqU5-149" value="&lt;font style=&quot;font-size: 16px;&quot;&gt;CNN&lt;/font&gt;" style="text;html=1;strokeColor=none;fillColor=none;align=center;verticalAlign=middle;whiteSpace=wrap;rounded=0;" vertex="1" parent="1">
          <mxGeometry x="45" y="255" width="60" height="30" as="geometry" />
        </mxCell>
        <mxCell id="I6M3-v00xLzkXQpwjqU5-151" value="" style="rounded=0;whiteSpace=wrap;html=1;" vertex="1" parent="1">
          <mxGeometry x="10" y="550" width="510" height="370" as="geometry" />
        </mxCell>
        <mxCell id="I6M3-v00xLzkXQpwjqU5-152" value="" style="rounded=0;whiteSpace=wrap;html=1;" vertex="1" parent="1">
          <mxGeometry y="1000" width="930" height="400" as="geometry" />
        </mxCell>
        <mxCell id="I6M3-v00xLzkXQpwjqU5-156" value="" style="rounded=0;whiteSpace=wrap;html=1;" vertex="1" parent="1">
          <mxGeometry x="50" y="562.81" width="40" height="157.19" as="geometry" />
        </mxCell>
        <mxCell id="I6M3-v00xLzkXQpwjqU5-163" style="edgeStyle=orthogonalEdgeStyle;rounded=0;orthogonalLoop=1;jettySize=auto;html=1;exitX=0.5;exitY=0;exitDx=0;exitDy=0;entryX=0.5;entryY=0;entryDx=0;entryDy=0;entryPerimeter=0;" edge="1" parent="1" source="I6M3-v00xLzkXQpwjqU5-157" target="I6M3-v00xLzkXQpwjqU5-162">
          <mxGeometry relative="1" as="geometry" />
        </mxCell>
        <mxCell id="I6M3-v00xLzkXQpwjqU5-171" value="B X L X L" style="edgeLabel;html=1;align=center;verticalAlign=middle;resizable=0;points=[];" vertex="1" connectable="0" parent="I6M3-v00xLzkXQpwjqU5-163">
          <mxGeometry x="-0.0277" y="1" relative="1" as="geometry">
            <mxPoint as="offset" />
          </mxGeometry>
        </mxCell>
        <mxCell id="I6M3-v00xLzkXQpwjqU5-157" value="LINEAR LAYER (U&lt;sub&gt;a&lt;/sub&gt;)" style="text;html=1;strokeColor=none;fillColor=none;align=center;verticalAlign=middle;whiteSpace=wrap;rounded=0;rotation=90;" vertex="1" parent="1">
          <mxGeometry x="-10.39" y="620.15" width="160.78" height="42.5" as="geometry" />
        </mxCell>
        <mxCell id="I6M3-v00xLzkXQpwjqU5-159" value="" style="rounded=0;whiteSpace=wrap;html=1;" vertex="1" parent="1">
          <mxGeometry x="50" y="740" width="40" height="157.19" as="geometry" />
        </mxCell>
        <mxCell id="I6M3-v00xLzkXQpwjqU5-164" style="edgeStyle=orthogonalEdgeStyle;rounded=0;orthogonalLoop=1;jettySize=auto;html=1;exitX=0.5;exitY=0;exitDx=0;exitDy=0;entryX=0.5;entryY=1;entryDx=0;entryDy=0;entryPerimeter=0;" edge="1" parent="1" source="I6M3-v00xLzkXQpwjqU5-158" target="I6M3-v00xLzkXQpwjqU5-162">
          <mxGeometry relative="1" as="geometry" />
        </mxCell>
        <mxCell id="I6M3-v00xLzkXQpwjqU5-173" value="B X L X 1" style="edgeLabel;html=1;align=center;verticalAlign=middle;resizable=0;points=[];" vertex="1" connectable="0" parent="I6M3-v00xLzkXQpwjqU5-164">
          <mxGeometry x="0.0529" y="-1" relative="1" as="geometry">
            <mxPoint as="offset" />
          </mxGeometry>
        </mxCell>
        <mxCell id="I6M3-v00xLzkXQpwjqU5-158" value="LINEAR LAYER (W&lt;sub&gt;a&lt;/sub&gt;)" style="text;html=1;strokeColor=none;fillColor=none;align=center;verticalAlign=middle;whiteSpace=wrap;rounded=0;rotation=90;" vertex="1" parent="1">
          <mxGeometry x="-10.389999999999986" y="800" width="160.78" height="42.5" as="geometry" />
        </mxCell>
        <mxCell id="I6M3-v00xLzkXQpwjqU5-160" style="edgeStyle=orthogonalEdgeStyle;rounded=0;orthogonalLoop=1;jettySize=auto;html=1;exitX=1;exitY=0.5;exitDx=0;exitDy=0;entryX=0.5;entryY=1;entryDx=0;entryDy=0;fillColor=#dae8fc;strokeColor=#6c8ebf;strokeWidth=3;" edge="1" parent="1" source="I6M3-v00xLzkXQpwjqU5-147" target="I6M3-v00xLzkXQpwjqU5-157">
          <mxGeometry relative="1" as="geometry">
            <Array as="points">
              <mxPoint x="660" y="275" />
              <mxPoint x="660" y="511" />
              <mxPoint x="-70" y="511" />
              <mxPoint x="-70" y="641" />
            </Array>
          </mxGeometry>
        </mxCell>
        <mxCell id="I6M3-v00xLzkXQpwjqU5-161" value="&lt;font style=&quot;font-size: 24px;&quot;&gt;&lt;b&gt;a&lt;/b&gt;&lt;/font&gt;" style="edgeLabel;html=1;align=center;verticalAlign=middle;resizable=0;points=[];" vertex="1" connectable="0" parent="I6M3-v00xLzkXQpwjqU5-160">
          <mxGeometry x="0.7847" y="-2" relative="1" as="geometry">
            <mxPoint y="-40" as="offset" />
          </mxGeometry>
        </mxCell>
        <mxCell id="I6M3-v00xLzkXQpwjqU5-170" value="B X D X L" style="edgeLabel;html=1;align=center;verticalAlign=middle;resizable=0;points=[];" vertex="1" connectable="0" parent="I6M3-v00xLzkXQpwjqU5-160">
          <mxGeometry x="0.7747" relative="1" as="geometry">
            <mxPoint as="offset" />
          </mxGeometry>
        </mxCell>
        <mxCell id="I6M3-v00xLzkXQpwjqU5-168" style="edgeStyle=orthogonalEdgeStyle;rounded=0;orthogonalLoop=1;jettySize=auto;html=1;exitX=1;exitY=0.5;exitDx=0;exitDy=0;exitPerimeter=0;entryX=0;entryY=0.5;entryDx=0;entryDy=0;" edge="1" parent="1" source="I6M3-v00xLzkXQpwjqU5-162" target="I6M3-v00xLzkXQpwjqU5-167">
          <mxGeometry relative="1" as="geometry" />
        </mxCell>
        <mxCell id="I6M3-v00xLzkXQpwjqU5-162" value="" style="verticalLabelPosition=bottom;verticalAlign=top;html=1;shape=mxgraph.flowchart.summing_function;" vertex="1" parent="1">
          <mxGeometry x="120" y="720" width="20" height="20" as="geometry" />
        </mxCell>
        <mxCell id="I6M3-v00xLzkXQpwjqU5-178" style="edgeStyle=orthogonalEdgeStyle;rounded=0;orthogonalLoop=1;jettySize=auto;html=1;exitX=1;exitY=0.5;exitDx=0;exitDy=0;" edge="1" parent="1" source="I6M3-v00xLzkXQpwjqU5-167" target="I6M3-v00xLzkXQpwjqU5-176">
          <mxGeometry relative="1" as="geometry" />
        </mxCell>
        <mxCell id="I6M3-v00xLzkXQpwjqU5-167" value="tanh" style="ellipse;whiteSpace=wrap;html=1;" vertex="1" parent="1">
          <mxGeometry x="170" y="710" width="40" height="40" as="geometry" />
        </mxCell>
        <mxCell id="I6M3-v00xLzkXQpwjqU5-177" value="" style="rounded=1;whiteSpace=wrap;html=1;" vertex="1" parent="1">
          <mxGeometry x="245" y="670" width="40" height="120" as="geometry" />
        </mxCell>
        <mxCell id="I6M3-v00xLzkXQpwjqU5-182" style="edgeStyle=orthogonalEdgeStyle;rounded=0;orthogonalLoop=1;jettySize=auto;html=1;exitX=0.5;exitY=0;exitDx=0;exitDy=0;entryX=0.5;entryY=1;entryDx=0;entryDy=0;" edge="1" parent="1" source="I6M3-v00xLzkXQpwjqU5-176" target="I6M3-v00xLzkXQpwjqU5-181">
          <mxGeometry relative="1" as="geometry" />
        </mxCell>
        <mxCell id="I6M3-v00xLzkXQpwjqU5-183" value="B X L" style="edgeLabel;html=1;align=center;verticalAlign=middle;resizable=0;points=[];" vertex="1" connectable="0" parent="I6M3-v00xLzkXQpwjqU5-182">
          <mxGeometry x="-0.1679" y="2" relative="1" as="geometry">
            <mxPoint y="2" as="offset" />
          </mxGeometry>
        </mxCell>
        <mxCell id="I6M3-v00xLzkXQpwjqU5-176" value="LINEAR LAYER (v&lt;sub&gt;a&lt;/sub&gt;)" style="text;html=1;strokeColor=none;fillColor=none;align=center;verticalAlign=middle;whiteSpace=wrap;rounded=0;rotation=90;" vertex="1" parent="1">
          <mxGeometry x="184.61" y="708.75" width="160.78" height="42.5" as="geometry" />
        </mxCell>
        <mxCell id="I6M3-v00xLzkXQpwjqU5-180" value="" style="rounded=1;whiteSpace=wrap;html=1;" vertex="1" parent="1">
          <mxGeometry x="379.61" y="670" width="40" height="120" as="geometry" />
        </mxCell>
        <mxCell id="I6M3-v00xLzkXQpwjqU5-186" style="edgeStyle=orthogonalEdgeStyle;rounded=0;orthogonalLoop=1;jettySize=auto;html=1;exitX=0.5;exitY=0;exitDx=0;exitDy=0;entryX=0.145;entryY=0.145;entryDx=0;entryDy=0;entryPerimeter=0;" edge="1" parent="1" source="I6M3-v00xLzkXQpwjqU5-181">
          <mxGeometry relative="1" as="geometry">
            <mxPoint x="469.95908370715097" y="730" as="targetPoint" />
          </mxGeometry>
        </mxCell>
        <mxCell id="I6M3-v00xLzkXQpwjqU5-181" value="SOFTMAX LAYER" style="text;html=1;strokeColor=none;fillColor=none;align=center;verticalAlign=middle;whiteSpace=wrap;rounded=0;rotation=90;" vertex="1" parent="1">
          <mxGeometry x="319.22" y="708.75" width="160.78" height="42.5" as="geometry" />
        </mxCell>
        <mxCell id="I6M3-v00xLzkXQpwjqU5-187" value="" style="endArrow=classic;html=1;rounded=0;entryX=0.855;entryY=0.145;entryDx=0;entryDy=0;entryPerimeter=0;strokeWidth=3;fillColor=#dae8fc;strokeColor=#6c8ebf;" edge="1" parent="1">
          <mxGeometry width="50" height="50" relative="1" as="geometry">
            <mxPoint x="480" y="510" as="sourcePoint" />
            <mxPoint x="480" y="719.9590837071512" as="targetPoint" />
          </mxGeometry>
        </mxCell>
        <mxCell id="I6M3-v00xLzkXQpwjqU5-188" value="" style="endArrow=classic;html=1;rounded=0;fillColor=#d5e8d4;strokeColor=#82b366;strokeWidth=3;entryX=0.5;entryY=0;entryDx=0;entryDy=0;jumpStyle=arc;" edge="1" parent="1" target="I6M3-v00xLzkXQpwjqU5-212">
          <mxGeometry width="50" height="50" relative="1" as="geometry">
            <mxPoint x="490" y="730" as="sourcePoint" />
            <mxPoint x="425" y="1050" as="targetPoint" />
            <Array as="points">
              <mxPoint x="600" y="730" />
              <mxPoint x="600" y="960" />
              <mxPoint x="300" y="960" />
              <mxPoint x="300" y="1020" />
              <mxPoint x="390" y="1020" />
            </Array>
          </mxGeometry>
        </mxCell>
        <mxCell id="I6M3-v00xLzkXQpwjqU5-313" value="B X D" style="edgeLabel;html=1;align=center;verticalAlign=middle;resizable=0;points=[];" vertex="1" connectable="0" parent="I6M3-v00xLzkXQpwjqU5-188">
          <mxGeometry x="-0.629" y="-2" relative="1" as="geometry">
            <mxPoint as="offset" />
          </mxGeometry>
        </mxCell>
        <mxCell id="I6M3-v00xLzkXQpwjqU5-190" value="&lt;span style=&quot;color: rgb(0, 0, 0); font-family: Helvetica; font-size: 16px; font-style: normal; font-variant-ligatures: normal; font-variant-caps: normal; font-weight: 400; letter-spacing: normal; orphans: 2; text-indent: 0px; text-transform: none; widows: 2; word-spacing: 0px; -webkit-text-stroke-width: 0px; text-decoration-thickness: initial; text-decoration-style: initial; text-decoration-color: initial; float: none; display: inline !important;&quot;&gt;CONTEXT ATTENDER&lt;/span&gt;" style="text;whiteSpace=wrap;html=1;fillColor=#d5e8d4;strokeColor=none;rounded=1;align=center;" vertex="1" parent="1">
          <mxGeometry x="170" y="562.81" width="190" height="40" as="geometry" />
        </mxCell>
        <mxCell id="I6M3-v00xLzkXQpwjqU5-191" value="" style="endArrow=classic;html=1;rounded=0;entryX=0.5;entryY=1;entryDx=0;entryDy=0;" edge="1" parent="1">
          <mxGeometry width="50" height="50" relative="1" as="geometry">
            <mxPoint x="390" y="1455" as="sourcePoint" />
            <mxPoint x="390" y="1375" as="targetPoint" />
          </mxGeometry>
        </mxCell>
        <mxCell id="I6M3-v00xLzkXQpwjqU5-208" style="edgeStyle=orthogonalEdgeStyle;rounded=0;orthogonalLoop=1;jettySize=auto;html=1;exitX=0.5;exitY=0;exitDx=0;exitDy=0;entryX=0.5;entryY=1;entryDx=0;entryDy=0;" edge="1" parent="1" source="I6M3-v00xLzkXQpwjqU5-192" target="I6M3-v00xLzkXQpwjqU5-195">
          <mxGeometry relative="1" as="geometry">
            <Array as="points">
              <mxPoint x="390" y="1310" />
              <mxPoint x="220" y="1310" />
            </Array>
          </mxGeometry>
        </mxCell>
        <mxCell id="I6M3-v00xLzkXQpwjqU5-209" style="edgeStyle=orthogonalEdgeStyle;rounded=0;orthogonalLoop=1;jettySize=auto;html=1;exitX=0.5;exitY=0;exitDx=0;exitDy=0;entryX=0.5;entryY=1;entryDx=0;entryDy=0;" edge="1" parent="1" source="I6M3-v00xLzkXQpwjqU5-192" target="I6M3-v00xLzkXQpwjqU5-199">
          <mxGeometry relative="1" as="geometry">
            <Array as="points">
              <mxPoint x="390" y="1310" />
              <mxPoint x="590" y="1310" />
            </Array>
          </mxGeometry>
        </mxCell>
        <mxCell id="I6M3-v00xLzkXQpwjqU5-311" value="B X M" style="edgeLabel;html=1;align=center;verticalAlign=middle;resizable=0;points=[];" vertex="1" connectable="0" parent="I6M3-v00xLzkXQpwjqU5-209">
          <mxGeometry x="-0.9031" relative="1" as="geometry">
            <mxPoint as="offset" />
          </mxGeometry>
        </mxCell>
        <mxCell id="I6M3-v00xLzkXQpwjqU5-192" value="" style="rounded=1;whiteSpace=wrap;html=1;" vertex="1" parent="1">
          <mxGeometry x="330" y="1345" width="120" height="30" as="geometry" />
        </mxCell>
        <mxCell id="I6M3-v00xLzkXQpwjqU5-193" value="Embedding Layer (E)" style="text;html=1;strokeColor=none;fillColor=none;align=center;verticalAlign=middle;whiteSpace=wrap;rounded=0;rotation=0;" vertex="1" parent="1">
          <mxGeometry x="330" y="1350" width="120" height="20" as="geometry" />
        </mxCell>
        <mxCell id="I6M3-v00xLzkXQpwjqU5-194" value="&lt;font style=&quot;font-size: 18px;&quot;&gt;y&lt;sub&gt;t-1&lt;/sub&gt;&lt;/font&gt;" style="text;html=1;strokeColor=none;fillColor=none;align=center;verticalAlign=middle;whiteSpace=wrap;rounded=0;" vertex="1" parent="1">
          <mxGeometry x="360" y="1420" width="60" height="30" as="geometry" />
        </mxCell>
        <mxCell id="I6M3-v00xLzkXQpwjqU5-227" style="edgeStyle=orthogonalEdgeStyle;rounded=0;orthogonalLoop=1;jettySize=auto;html=1;exitX=0.5;exitY=0;exitDx=0;exitDy=0;entryX=0.5;entryY=1;entryDx=0;entryDy=0;entryPerimeter=0;" edge="1" parent="1" source="I6M3-v00xLzkXQpwjqU5-195" target="I6M3-v00xLzkXQpwjqU5-226">
          <mxGeometry relative="1" as="geometry" />
        </mxCell>
        <mxCell id="I6M3-v00xLzkXQpwjqU5-195" value="" style="rounded=1;whiteSpace=wrap;html=1;" vertex="1" parent="1">
          <mxGeometry x="160" y="1260" width="120" height="30" as="geometry" />
        </mxCell>
        <mxCell id="I6M3-v00xLzkXQpwjqU5-196" value="Linear Layer (W&lt;sub&gt;yz&lt;/sub&gt;)" style="text;html=1;strokeColor=none;fillColor=none;align=center;verticalAlign=middle;whiteSpace=wrap;rounded=0;rotation=0;" vertex="1" parent="1">
          <mxGeometry x="160" y="1265" width="120" height="20" as="geometry" />
        </mxCell>
        <mxCell id="I6M3-v00xLzkXQpwjqU5-239" style="edgeStyle=orthogonalEdgeStyle;rounded=0;orthogonalLoop=1;jettySize=auto;html=1;exitX=0.5;exitY=0;exitDx=0;exitDy=0;entryX=0.5;entryY=1;entryDx=0;entryDy=0;entryPerimeter=0;" edge="1" parent="1" source="I6M3-v00xLzkXQpwjqU5-197" target="I6M3-v00xLzkXQpwjqU5-238">
          <mxGeometry relative="1" as="geometry" />
        </mxCell>
        <mxCell id="I6M3-v00xLzkXQpwjqU5-197" value="" style="rounded=1;whiteSpace=wrap;html=1;" vertex="1" parent="1">
          <mxGeometry x="330" y="1260" width="120" height="30" as="geometry" />
        </mxCell>
        <mxCell id="I6M3-v00xLzkXQpwjqU5-198" value="Linear Layer (W&lt;sub&gt;yr&lt;/sub&gt;)" style="text;html=1;strokeColor=none;fillColor=none;align=center;verticalAlign=middle;whiteSpace=wrap;rounded=0;rotation=0;" vertex="1" parent="1">
          <mxGeometry x="330" y="1265" width="120" height="20" as="geometry" />
        </mxCell>
        <mxCell id="I6M3-v00xLzkXQpwjqU5-199" value="" style="rounded=1;whiteSpace=wrap;html=1;" vertex="1" parent="1">
          <mxGeometry x="530" y="1260" width="120" height="30" as="geometry" />
        </mxCell>
        <mxCell id="I6M3-v00xLzkXQpwjqU5-268" style="edgeStyle=orthogonalEdgeStyle;rounded=0;orthogonalLoop=1;jettySize=auto;html=1;exitX=1;exitY=0.5;exitDx=0;exitDy=0;entryX=0.5;entryY=1;entryDx=0;entryDy=0;entryPerimeter=0;" edge="1" parent="1" source="I6M3-v00xLzkXQpwjqU5-200" target="I6M3-v00xLzkXQpwjqU5-267">
          <mxGeometry relative="1" as="geometry" />
        </mxCell>
        <mxCell id="I6M3-v00xLzkXQpwjqU5-200" value="Linear Layer (W&lt;sub&gt;yh&lt;/sub&gt;)" style="text;html=1;strokeColor=none;fillColor=none;align=center;verticalAlign=middle;whiteSpace=wrap;rounded=0;rotation=0;" vertex="1" parent="1">
          <mxGeometry x="530" y="1265" width="120" height="20" as="geometry" />
        </mxCell>
        <mxCell id="I6M3-v00xLzkXQpwjqU5-205" value="" style="rounded=1;whiteSpace=wrap;html=1;" vertex="1" parent="1">
          <mxGeometry x="30.389999999999986" y="1215" width="120" height="30" as="geometry" />
        </mxCell>
        <mxCell id="I6M3-v00xLzkXQpwjqU5-207" value="" style="endArrow=classic;html=1;rounded=0;entryX=0.5;entryY=1;entryDx=0;entryDy=0;" edge="1" parent="1" target="I6M3-v00xLzkXQpwjqU5-197">
          <mxGeometry width="50" height="50" relative="1" as="geometry">
            <mxPoint x="390" y="1320" as="sourcePoint" />
            <mxPoint x="440" y="1270" as="targetPoint" />
          </mxGeometry>
        </mxCell>
        <mxCell id="I6M3-v00xLzkXQpwjqU5-229" style="edgeStyle=orthogonalEdgeStyle;rounded=0;orthogonalLoop=1;jettySize=auto;html=1;exitX=0.5;exitY=1;exitDx=0;exitDy=0;entryX=0.5;entryY=0;entryDx=0;entryDy=0;entryPerimeter=0;" edge="1" parent="1" source="I6M3-v00xLzkXQpwjqU5-210" target="I6M3-v00xLzkXQpwjqU5-226">
          <mxGeometry relative="1" as="geometry">
            <Array as="points">
              <mxPoint x="220" y="1165" />
            </Array>
          </mxGeometry>
        </mxCell>
        <mxCell id="I6M3-v00xLzkXQpwjqU5-314" value="B X H" style="edgeLabel;html=1;align=center;verticalAlign=middle;resizable=0;points=[];" vertex="1" connectable="0" parent="I6M3-v00xLzkXQpwjqU5-229">
          <mxGeometry x="-0.6161" y="-2" relative="1" as="geometry">
            <mxPoint as="offset" />
          </mxGeometry>
        </mxCell>
        <mxCell id="I6M3-v00xLzkXQpwjqU5-210" value="" style="rounded=1;whiteSpace=wrap;html=1;" vertex="1" parent="1">
          <mxGeometry x="160" y="1045" width="120" height="30" as="geometry" />
        </mxCell>
        <mxCell id="I6M3-v00xLzkXQpwjqU5-211" value="Linear Layer (C&lt;sub&gt;cz&lt;/sub&gt;)" style="text;html=1;strokeColor=none;fillColor=none;align=center;verticalAlign=middle;whiteSpace=wrap;rounded=0;rotation=0;" vertex="1" parent="1">
          <mxGeometry x="165" y="1050" width="120" height="20" as="geometry" />
        </mxCell>
        <mxCell id="I6M3-v00xLzkXQpwjqU5-240" style="edgeStyle=orthogonalEdgeStyle;rounded=0;orthogonalLoop=1;jettySize=auto;html=1;exitX=0.5;exitY=1;exitDx=0;exitDy=0;entryX=0.5;entryY=0;entryDx=0;entryDy=0;entryPerimeter=0;" edge="1" parent="1" source="I6M3-v00xLzkXQpwjqU5-212" target="I6M3-v00xLzkXQpwjqU5-238">
          <mxGeometry relative="1" as="geometry" />
        </mxCell>
        <mxCell id="I6M3-v00xLzkXQpwjqU5-315" value="B X H" style="edgeLabel;html=1;align=center;verticalAlign=middle;resizable=0;points=[];" vertex="1" connectable="0" parent="I6M3-v00xLzkXQpwjqU5-240">
          <mxGeometry x="-0.6391" y="-3" relative="1" as="geometry">
            <mxPoint x="3" as="offset" />
          </mxGeometry>
        </mxCell>
        <mxCell id="I6M3-v00xLzkXQpwjqU5-212" value="" style="rounded=1;whiteSpace=wrap;html=1;" vertex="1" parent="1">
          <mxGeometry x="330" y="1045" width="120" height="30" as="geometry" />
        </mxCell>
        <mxCell id="I6M3-v00xLzkXQpwjqU5-213" value="Linear Layer (C&lt;sub&gt;cr&lt;/sub&gt;)" style="text;html=1;strokeColor=none;fillColor=none;align=center;verticalAlign=middle;whiteSpace=wrap;rounded=0;rotation=0;" vertex="1" parent="1">
          <mxGeometry x="337.5" y="1050" width="105" height="20" as="geometry" />
        </mxCell>
        <mxCell id="I6M3-v00xLzkXQpwjqU5-216" value="" style="ellipse;whiteSpace=wrap;html=1;" vertex="1" parent="1">
          <mxGeometry x="470" y="720" width="20" height="20" as="geometry" />
        </mxCell>
        <mxCell id="I6M3-v00xLzkXQpwjqU5-217" value="" style="ellipse;whiteSpace=wrap;html=1;fillColor=#000000;strokeColor=none;" vertex="1" parent="1">
          <mxGeometry x="475" y="725" width="10" height="10" as="geometry" />
        </mxCell>
        <mxCell id="I6M3-v00xLzkXQpwjqU5-218" value="" style="endArrow=classic;html=1;rounded=0;entryX=0.5;entryY=0;entryDx=0;entryDy=0;strokeWidth=3;fillColor=#d5e8d4;strokeColor=#82b366;" edge="1" parent="1" target="I6M3-v00xLzkXQpwjqU5-210">
          <mxGeometry width="50" height="50" relative="1" as="geometry">
            <mxPoint x="330" y="1020" as="sourcePoint" />
            <mxPoint x="380" y="970" as="targetPoint" />
            <Array as="points">
              <mxPoint x="220" y="1020" />
            </Array>
          </mxGeometry>
        </mxCell>
        <mxCell id="I6M3-v00xLzkXQpwjqU5-223" value="" style="endArrow=classic;html=1;rounded=0;entryX=0;entryY=0.5;entryDx=0;entryDy=0;fillColor=#f8cecc;strokeColor=#b85450;strokeWidth=3;" edge="1" parent="1" target="I6M3-v00xLzkXQpwjqU5-205">
          <mxGeometry width="50" height="50" relative="1" as="geometry">
            <mxPoint x="-70" y="940" as="sourcePoint" />
            <mxPoint x="30.389999999999873" y="1225" as="targetPoint" />
            <Array as="points">
              <mxPoint x="-70" y="1230" />
            </Array>
          </mxGeometry>
        </mxCell>
        <mxCell id="I6M3-v00xLzkXQpwjqU5-228" style="edgeStyle=orthogonalEdgeStyle;rounded=0;orthogonalLoop=1;jettySize=auto;html=1;exitX=1;exitY=0.5;exitDx=0;exitDy=0;entryX=0;entryY=0.5;entryDx=0;entryDy=0;entryPerimeter=0;" edge="1" parent="1" source="I6M3-v00xLzkXQpwjqU5-224" target="I6M3-v00xLzkXQpwjqU5-226">
          <mxGeometry relative="1" as="geometry" />
        </mxCell>
        <mxCell id="I6M3-v00xLzkXQpwjqU5-317" value="B X H" style="edgeLabel;html=1;align=center;verticalAlign=middle;resizable=0;points=[];" vertex="1" connectable="0" parent="I6M3-v00xLzkXQpwjqU5-228">
          <mxGeometry x="-0.3219" relative="1" as="geometry">
            <mxPoint x="9" as="offset" />
          </mxGeometry>
        </mxCell>
        <mxCell id="I6M3-v00xLzkXQpwjqU5-224" value="Linear Layer (U&lt;sub&gt;hz&lt;/sub&gt;)" style="text;html=1;strokeColor=none;fillColor=none;align=center;verticalAlign=middle;whiteSpace=wrap;rounded=0;rotation=0;" vertex="1" parent="1">
          <mxGeometry x="30.39" y="1220" width="120" height="20" as="geometry" />
        </mxCell>
        <mxCell id="I6M3-v00xLzkXQpwjqU5-243" style="edgeStyle=orthogonalEdgeStyle;rounded=0;orthogonalLoop=1;jettySize=auto;html=1;exitX=1;exitY=0.5;exitDx=0;exitDy=0;exitPerimeter=0;entryX=0.5;entryY=0.5;entryDx=0;entryDy=15;entryPerimeter=0;" edge="1" parent="1" source="I6M3-v00xLzkXQpwjqU5-226" target="I6M3-v00xLzkXQpwjqU5-242">
          <mxGeometry relative="1" as="geometry" />
        </mxCell>
        <mxCell id="I6M3-v00xLzkXQpwjqU5-226" value="" style="verticalLabelPosition=bottom;verticalAlign=top;html=1;shape=mxgraph.flowchart.summing_function;" vertex="1" parent="1">
          <mxGeometry x="210" y="1220" width="20" height="20" as="geometry" />
        </mxCell>
        <mxCell id="I6M3-v00xLzkXQpwjqU5-234" value="" style="rounded=1;whiteSpace=wrap;html=1;" vertex="1" parent="1">
          <mxGeometry x="30.389999999999986" y="1139" width="120" height="30" as="geometry" />
        </mxCell>
        <mxCell id="I6M3-v00xLzkXQpwjqU5-241" style="edgeStyle=orthogonalEdgeStyle;rounded=0;orthogonalLoop=1;jettySize=auto;html=1;exitX=1;exitY=0.5;exitDx=0;exitDy=0;entryX=0;entryY=0.5;entryDx=0;entryDy=0;entryPerimeter=0;jumpStyle=arc;" edge="1" parent="1" source="I6M3-v00xLzkXQpwjqU5-235" target="I6M3-v00xLzkXQpwjqU5-238">
          <mxGeometry relative="1" as="geometry">
            <Array as="points">
              <mxPoint x="150" y="1150" />
              <mxPoint x="340" y="1150" />
              <mxPoint x="340" y="1230" />
            </Array>
          </mxGeometry>
        </mxCell>
        <mxCell id="I6M3-v00xLzkXQpwjqU5-316" value="B X H" style="edgeLabel;html=1;align=center;verticalAlign=middle;resizable=0;points=[];" vertex="1" connectable="0" parent="I6M3-v00xLzkXQpwjqU5-241">
          <mxGeometry x="-0.7327" y="2" relative="1" as="geometry">
            <mxPoint x="-8" y="2" as="offset" />
          </mxGeometry>
        </mxCell>
        <mxCell id="I6M3-v00xLzkXQpwjqU5-235" value="Linear Layer (U&lt;sub&gt;hz&lt;/sub&gt;)" style="text;html=1;strokeColor=none;fillColor=none;align=center;verticalAlign=middle;whiteSpace=wrap;rounded=0;rotation=0;" vertex="1" parent="1">
          <mxGeometry x="30.39" y="1144" width="120" height="20" as="geometry" />
        </mxCell>
        <mxCell id="I6M3-v00xLzkXQpwjqU5-237" value="" style="endArrow=classic;html=1;rounded=0;entryX=0;entryY=0.5;entryDx=0;entryDy=0;fillColor=#f8cecc;strokeColor=#b85450;strokeWidth=3;" edge="1" parent="1" target="I6M3-v00xLzkXQpwjqU5-235">
          <mxGeometry width="50" height="50" relative="1" as="geometry">
            <mxPoint x="-70" y="1154" as="sourcePoint" />
            <mxPoint x="-20" y="1100" as="targetPoint" />
          </mxGeometry>
        </mxCell>
        <mxCell id="I6M3-v00xLzkXQpwjqU5-238" value="" style="verticalLabelPosition=bottom;verticalAlign=top;html=1;shape=mxgraph.flowchart.summing_function;" vertex="1" parent="1">
          <mxGeometry x="380" y="1220" width="20" height="20" as="geometry" />
        </mxCell>
        <mxCell id="I6M3-v00xLzkXQpwjqU5-277" style="edgeStyle=orthogonalEdgeStyle;rounded=0;orthogonalLoop=1;jettySize=auto;html=1;exitX=0.5;exitY=0.5;exitDx=0;exitDy=-15;exitPerimeter=0;entryX=0.145;entryY=0.145;entryDx=0;entryDy=0;entryPerimeter=0;jumpStyle=arc;" edge="1" parent="1" source="I6M3-v00xLzkXQpwjqU5-242" target="I6M3-v00xLzkXQpwjqU5-276">
          <mxGeometry relative="1" as="geometry">
            <Array as="points">
              <mxPoint x="285" y="1130" />
              <mxPoint x="850" y="1130" />
            </Array>
          </mxGeometry>
        </mxCell>
        <mxCell id="I6M3-v00xLzkXQpwjqU5-242" value="SIGMOID" style="html=1;dashed=0;whiteSpace=wrap;shape=mxgraph.dfd.start" vertex="1" parent="1">
          <mxGeometry x="245" y="1170" width="80" height="30" as="geometry" />
        </mxCell>
        <mxCell id="I6M3-v00xLzkXQpwjqU5-246" style="edgeStyle=orthogonalEdgeStyle;rounded=0;orthogonalLoop=1;jettySize=auto;html=1;exitX=1;exitY=0.5;exitDx=0;exitDy=0;exitPerimeter=0;entryX=0.5;entryY=0.5;entryDx=0;entryDy=15;entryPerimeter=0;" edge="1" parent="1" target="I6M3-v00xLzkXQpwjqU5-247">
          <mxGeometry relative="1" as="geometry">
            <mxPoint x="400" y="1229" as="sourcePoint" />
          </mxGeometry>
        </mxCell>
        <mxCell id="I6M3-v00xLzkXQpwjqU5-252" style="edgeStyle=orthogonalEdgeStyle;rounded=0;orthogonalLoop=1;jettySize=auto;html=1;exitX=1;exitY=0.5;exitDx=0;exitDy=0;exitPerimeter=0;entryX=0.145;entryY=0.855;entryDx=0;entryDy=0;entryPerimeter=0;" edge="1" parent="1" source="I6M3-v00xLzkXQpwjqU5-247" target="I6M3-v00xLzkXQpwjqU5-251">
          <mxGeometry relative="1" as="geometry" />
        </mxCell>
        <mxCell id="I6M3-v00xLzkXQpwjqU5-247" value="SIGMOID" style="html=1;dashed=0;whiteSpace=wrap;shape=mxgraph.dfd.start" vertex="1" parent="1">
          <mxGeometry x="415" y="1169" width="80" height="30" as="geometry" />
        </mxCell>
        <mxCell id="I6M3-v00xLzkXQpwjqU5-250" value="" style="endArrow=classic;html=1;rounded=0;entryX=0.145;entryY=0.145;entryDx=0;entryDy=0;fillColor=#f8cecc;strokeColor=#b85450;strokeWidth=3;entryPerimeter=0;jumpStyle=arc;" edge="1" parent="1" target="I6M3-v00xLzkXQpwjqU5-251">
          <mxGeometry width="50" height="50" relative="1" as="geometry">
            <mxPoint x="540" y="940" as="sourcePoint" />
            <mxPoint x="30.39" y="1104.71" as="targetPoint" />
            <Array as="points">
              <mxPoint x="540" y="1090" />
            </Array>
          </mxGeometry>
        </mxCell>
        <mxCell id="I6M3-v00xLzkXQpwjqU5-266" style="edgeStyle=orthogonalEdgeStyle;rounded=0;orthogonalLoop=1;jettySize=auto;html=1;exitX=0.855;exitY=0.145;exitDx=0;exitDy=0;exitPerimeter=0;entryX=0;entryY=0.5;entryDx=0;entryDy=0;" edge="1" parent="1" source="I6M3-v00xLzkXQpwjqU5-251" target="I6M3-v00xLzkXQpwjqU5-257">
          <mxGeometry relative="1" as="geometry">
            <Array as="points">
              <mxPoint x="550" y="1185" />
            </Array>
          </mxGeometry>
        </mxCell>
        <mxCell id="I6M3-v00xLzkXQpwjqU5-251" value="" style="verticalLabelPosition=bottom;verticalAlign=top;html=1;shape=mxgraph.flowchart.summing_function;rotation=45;" vertex="1" parent="1">
          <mxGeometry x="530" y="1174" width="20" height="20" as="geometry" />
        </mxCell>
        <mxCell id="I6M3-v00xLzkXQpwjqU5-256" value="" style="rounded=1;whiteSpace=wrap;html=1;" vertex="1" parent="1">
          <mxGeometry x="580" y="1170" width="120" height="30" as="geometry" />
        </mxCell>
        <mxCell id="I6M3-v00xLzkXQpwjqU5-257" value="Linear Layer (U&lt;sub&gt;hr&lt;/sub&gt;)" style="text;html=1;strokeColor=none;fillColor=none;align=center;verticalAlign=middle;whiteSpace=wrap;rounded=0;rotation=0;" vertex="1" parent="1">
          <mxGeometry x="580" y="1175" width="120" height="20" as="geometry" />
        </mxCell>
        <mxCell id="I6M3-v00xLzkXQpwjqU5-272" style="edgeStyle=orthogonalEdgeStyle;rounded=0;orthogonalLoop=1;jettySize=auto;html=1;exitX=1;exitY=0.5;exitDx=0;exitDy=0;exitPerimeter=0;entryX=0.5;entryY=0.5;entryDx=0;entryDy=15;entryPerimeter=0;" edge="1" parent="1" source="I6M3-v00xLzkXQpwjqU5-267" target="I6M3-v00xLzkXQpwjqU5-271">
          <mxGeometry relative="1" as="geometry" />
        </mxCell>
        <mxCell id="I6M3-v00xLzkXQpwjqU5-267" value="" style="verticalLabelPosition=bottom;verticalAlign=top;html=1;shape=mxgraph.flowchart.summing_function;rotation=0;" vertex="1" parent="1">
          <mxGeometry x="730" y="1220" width="20" height="20" as="geometry" />
        </mxCell>
        <mxCell id="I6M3-v00xLzkXQpwjqU5-269" value="" style="endArrow=classic;html=1;rounded=0;entryX=0;entryY=0.5;entryDx=0;entryDy=0;entryPerimeter=0;exitX=0.5;exitY=1;exitDx=0;exitDy=0;" edge="1" parent="1" source="I6M3-v00xLzkXQpwjqU5-256" target="I6M3-v00xLzkXQpwjqU5-267">
          <mxGeometry width="50" height="50" relative="1" as="geometry">
            <mxPoint x="800.6666666666666" y="1240" as="sourcePoint" />
            <mxPoint x="690" y="1200" as="targetPoint" />
            <Array as="points">
              <mxPoint x="640" y="1230" />
            </Array>
          </mxGeometry>
        </mxCell>
        <mxCell id="I6M3-v00xLzkXQpwjqU5-270" value="" style="endArrow=classic;html=1;rounded=0;entryX=0.5;entryY=0;entryDx=0;entryDy=0;entryPerimeter=0;" edge="1" parent="1" target="I6M3-v00xLzkXQpwjqU5-267">
          <mxGeometry width="50" height="50" relative="1" as="geometry">
            <mxPoint x="390" y="1150" as="sourcePoint" />
            <mxPoint x="440" y="1110" as="targetPoint" />
            <Array as="points">
              <mxPoint x="570" y="1150" />
              <mxPoint x="740" y="1150" />
            </Array>
          </mxGeometry>
        </mxCell>
        <mxCell id="I6M3-v00xLzkXQpwjqU5-278" style="edgeStyle=orthogonalEdgeStyle;rounded=0;orthogonalLoop=1;jettySize=auto;html=1;exitX=0.5;exitY=0.5;exitDx=0;exitDy=-15;exitPerimeter=0;entryX=0.855;entryY=0.855;entryDx=0;entryDy=0;entryPerimeter=0;" edge="1" parent="1" source="I6M3-v00xLzkXQpwjqU5-271" target="I6M3-v00xLzkXQpwjqU5-276">
          <mxGeometry relative="1" as="geometry">
            <mxPoint x="860" y="1170" as="targetPoint" />
            <Array as="points">
              <mxPoint x="850" y="1230" />
            </Array>
          </mxGeometry>
        </mxCell>
        <mxCell id="I6M3-v00xLzkXQpwjqU5-271" value="SIGMOID" style="html=1;dashed=0;whiteSpace=wrap;shape=mxgraph.dfd.start;rotation=90;" vertex="1" parent="1">
          <mxGeometry x="760" y="1215" width="80" height="30" as="geometry" />
        </mxCell>
        <mxCell id="I6M3-v00xLzkXQpwjqU5-286" style="edgeStyle=orthogonalEdgeStyle;rounded=0;orthogonalLoop=1;jettySize=auto;html=1;exitX=0.855;exitY=0.145;exitDx=0;exitDy=0;exitPerimeter=0;entryX=0;entryY=0.5;entryDx=0;entryDy=0;entryPerimeter=0;" edge="1" parent="1" source="I6M3-v00xLzkXQpwjqU5-276" target="I6M3-v00xLzkXQpwjqU5-285">
          <mxGeometry relative="1" as="geometry" />
        </mxCell>
        <mxCell id="I6M3-v00xLzkXQpwjqU5-276" value="" style="verticalLabelPosition=bottom;verticalAlign=top;html=1;shape=mxgraph.flowchart.summing_function;rotation=45;" vertex="1" parent="1">
          <mxGeometry x="840" y="1170" width="20" height="20" as="geometry" />
        </mxCell>
        <mxCell id="I6M3-v00xLzkXQpwjqU5-279" value="" style="endArrow=classic;html=1;rounded=0;entryX=0.145;entryY=0.145;entryDx=0;entryDy=0;fillColor=#f8cecc;strokeColor=#b85450;strokeWidth=3;entryPerimeter=0;jumpStyle=arc;" edge="1" parent="1" target="I6M3-v00xLzkXQpwjqU5-273">
          <mxGeometry width="50" height="50" relative="1" as="geometry">
            <mxPoint x="750" y="940" as="sourcePoint" />
            <mxPoint x="669.71" y="1100" as="targetPoint" />
            <Array as="points" />
          </mxGeometry>
        </mxCell>
        <mxCell id="I6M3-v00xLzkXQpwjqU5-287" style="edgeStyle=orthogonalEdgeStyle;rounded=0;orthogonalLoop=1;jettySize=auto;html=1;exitX=0.855;exitY=0.145;exitDx=0;exitDy=0;exitPerimeter=0;entryX=0.5;entryY=0;entryDx=0;entryDy=0;entryPerimeter=0;" edge="1" parent="1" source="I6M3-v00xLzkXQpwjqU5-273" target="I6M3-v00xLzkXQpwjqU5-285">
          <mxGeometry relative="1" as="geometry" />
        </mxCell>
        <mxCell id="I6M3-v00xLzkXQpwjqU5-273" value="" style="verticalLabelPosition=bottom;verticalAlign=top;html=1;shape=mxgraph.flowchart.summing_function;rotation=45;" vertex="1" parent="1">
          <mxGeometry x="740" y="1065" width="20" height="20" as="geometry" />
        </mxCell>
        <mxCell id="I6M3-v00xLzkXQpwjqU5-280" value="" style="endArrow=classic;html=1;rounded=0;entryX=0.5;entryY=0.5;entryDx=0;entryDy=15;entryPerimeter=0;" edge="1" parent="1" target="I6M3-v00xLzkXQpwjqU5-281">
          <mxGeometry width="50" height="50" relative="1" as="geometry">
            <mxPoint x="560" y="1130" as="sourcePoint" />
            <mxPoint x="610" y="1080" as="targetPoint" />
            <Array as="points">
              <mxPoint x="560" y="1075" />
            </Array>
          </mxGeometry>
        </mxCell>
        <mxCell id="I6M3-v00xLzkXQpwjqU5-282" style="edgeStyle=orthogonalEdgeStyle;rounded=0;orthogonalLoop=1;jettySize=auto;html=1;exitX=0.5;exitY=0.5;exitDx=0;exitDy=-15;exitPerimeter=0;entryX=0.145;entryY=0.855;entryDx=0;entryDy=0;entryPerimeter=0;" edge="1" parent="1" source="I6M3-v00xLzkXQpwjqU5-281" target="I6M3-v00xLzkXQpwjqU5-273">
          <mxGeometry relative="1" as="geometry" />
        </mxCell>
        <mxCell id="I6M3-v00xLzkXQpwjqU5-281" value="&lt;b&gt;1 - ( . )&lt;/b&gt;" style="html=1;dashed=0;whiteSpace=wrap;shape=mxgraph.dfd.start;rotation=90;" vertex="1" parent="1">
          <mxGeometry x="610" y="1060" width="80" height="30" as="geometry" />
        </mxCell>
        <mxCell id="I6M3-v00xLzkXQpwjqU5-285" value="" style="verticalLabelPosition=bottom;verticalAlign=top;html=1;shape=mxgraph.flowchart.summing_function;" vertex="1" parent="1">
          <mxGeometry x="900" y="1170" width="20" height="20" as="geometry" />
        </mxCell>
        <mxCell id="I6M3-v00xLzkXQpwjqU5-153" style="edgeStyle=orthogonalEdgeStyle;rounded=0;orthogonalLoop=1;jettySize=auto;html=1;entryX=0.529;entryY=1.08;entryDx=0;entryDy=0;entryPerimeter=0;fillColor=#f8cecc;strokeColor=#b85450;strokeWidth=3;jumpStyle=arc;exitX=1;exitY=0.5;exitDx=0;exitDy=0;exitPerimeter=0;" edge="1" parent="1" source="I6M3-v00xLzkXQpwjqU5-285" target="I6M3-v00xLzkXQpwjqU5-158">
          <mxGeometry relative="1" as="geometry">
            <mxPoint x="-210" y="1240" as="sourcePoint" />
            <mxPoint x="-70" y="735" as="targetPoint" />
            <Array as="points">
              <mxPoint x="960" y="1180" />
              <mxPoint x="960" y="940" />
              <mxPoint x="-70" y="940" />
              <mxPoint x="-70" y="826" />
            </Array>
          </mxGeometry>
        </mxCell>
        <mxCell id="I6M3-v00xLzkXQpwjqU5-154" value="&lt;font style=&quot;font-size: 24px;&quot;&gt;h&lt;sub&gt;t-1&lt;/sub&gt;&lt;/font&gt;" style="edgeLabel;html=1;align=center;verticalAlign=middle;resizable=0;points=[];" vertex="1" connectable="0" parent="I6M3-v00xLzkXQpwjqU5-153">
          <mxGeometry x="0.0671" y="2" relative="1" as="geometry">
            <mxPoint x="-489" y="-52" as="offset" />
          </mxGeometry>
        </mxCell>
        <mxCell id="I6M3-v00xLzkXQpwjqU5-172" value="B X H" style="edgeLabel;html=1;align=center;verticalAlign=middle;resizable=0;points=[];" vertex="1" connectable="0" parent="I6M3-v00xLzkXQpwjqU5-153">
          <mxGeometry x="0.5045" y="1" relative="1" as="geometry">
            <mxPoint x="-151" y="-21" as="offset" />
          </mxGeometry>
        </mxCell>
        <mxCell id="I6M3-v00xLzkXQpwjqU5-288" value="&lt;font style=&quot;font-size: 24px;&quot;&gt;h&lt;sub style=&quot;border-color: var(--border-color);&quot;&gt;t&lt;/sub&gt;&lt;/font&gt;" style="edgeLabel;html=1;align=center;verticalAlign=middle;resizable=0;points=[];" vertex="1" connectable="0" parent="I6M3-v00xLzkXQpwjqU5-153">
          <mxGeometry x="-0.8666" y="2" relative="1" as="geometry">
            <mxPoint as="offset" />
          </mxGeometry>
        </mxCell>
        <mxCell id="I6M3-v00xLzkXQpwjqU5-309" style="edgeStyle=orthogonalEdgeStyle;rounded=0;orthogonalLoop=1;jettySize=auto;html=1;exitX=0.5;exitY=0.5;exitDx=0;exitDy=-15;exitPerimeter=0;" edge="1" parent="1" source="I6M3-v00xLzkXQpwjqU5-289">
          <mxGeometry relative="1" as="geometry">
            <mxPoint x="1309.9999999999995" y="1167.7837837837837" as="targetPoint" />
          </mxGeometry>
        </mxCell>
        <mxCell id="I6M3-v00xLzkXQpwjqU5-289" value="SIGMOID" style="html=1;dashed=0;whiteSpace=wrap;shape=mxgraph.dfd.start;rotation=90;" vertex="1" parent="1">
          <mxGeometry x="1220" y="1152.81" width="80" height="30" as="geometry" />
        </mxCell>
        <mxCell id="I6M3-v00xLzkXQpwjqU5-302" style="edgeStyle=orthogonalEdgeStyle;rounded=0;orthogonalLoop=1;jettySize=auto;html=1;exitX=0.5;exitY=0;exitDx=0;exitDy=0;entryX=0;entryY=0.5;entryDx=0;entryDy=0;entryPerimeter=0;" edge="1" parent="1" source="I6M3-v00xLzkXQpwjqU5-290" target="I6M3-v00xLzkXQpwjqU5-298">
          <mxGeometry relative="1" as="geometry" />
        </mxCell>
        <mxCell id="I6M3-v00xLzkXQpwjqU5-290" value="" style="rounded=1;whiteSpace=wrap;html=1;rotation=90;" vertex="1" parent="1">
          <mxGeometry x="980" y="1152.81" width="120" height="30" as="geometry" />
        </mxCell>
        <mxCell id="I6M3-v00xLzkXQpwjqU5-291" value="Linear Layer (W&lt;sub&gt;h&lt;/sub&gt;)" style="text;html=1;strokeColor=none;fillColor=none;align=center;verticalAlign=middle;whiteSpace=wrap;rounded=0;rotation=90;" vertex="1" parent="1">
          <mxGeometry x="980" y="1157.81" width="120" height="20" as="geometry" />
        </mxCell>
        <mxCell id="I6M3-v00xLzkXQpwjqU5-303" style="edgeStyle=orthogonalEdgeStyle;rounded=0;orthogonalLoop=1;jettySize=auto;html=1;exitX=0.5;exitY=0;exitDx=0;exitDy=0;entryX=0.5;entryY=0;entryDx=0;entryDy=0;entryPerimeter=0;" edge="1" parent="1" source="I6M3-v00xLzkXQpwjqU5-294" target="I6M3-v00xLzkXQpwjqU5-298">
          <mxGeometry relative="1" as="geometry" />
        </mxCell>
        <mxCell id="I6M3-v00xLzkXQpwjqU5-294" value="" style="rounded=1;whiteSpace=wrap;html=1;rotation=90;" vertex="1" parent="1">
          <mxGeometry x="980" y="1010" width="120" height="30" as="geometry" />
        </mxCell>
        <mxCell id="I6M3-v00xLzkXQpwjqU5-295" value="Linear Layer (W&lt;sub&gt;c&lt;/sub&gt;)" style="text;html=1;strokeColor=none;fillColor=none;align=center;verticalAlign=middle;whiteSpace=wrap;rounded=0;rotation=90;" vertex="1" parent="1">
          <mxGeometry x="980" y="1015" width="120" height="20" as="geometry" />
        </mxCell>
        <mxCell id="I6M3-v00xLzkXQpwjqU5-307" style="edgeStyle=orthogonalEdgeStyle;rounded=0;orthogonalLoop=1;jettySize=auto;html=1;exitX=1;exitY=0.5;exitDx=0;exitDy=0;exitPerimeter=0;entryX=0.5;entryY=1;entryDx=0;entryDy=0;" edge="1" parent="1" source="I6M3-v00xLzkXQpwjqU5-298" target="I6M3-v00xLzkXQpwjqU5-305">
          <mxGeometry relative="1" as="geometry" />
        </mxCell>
        <mxCell id="I6M3-v00xLzkXQpwjqU5-298" value="" style="verticalLabelPosition=bottom;verticalAlign=top;html=1;shape=mxgraph.flowchart.summing_function;" vertex="1" parent="1">
          <mxGeometry x="1100" y="1157.81" width="20" height="20" as="geometry" />
        </mxCell>
        <mxCell id="I6M3-v00xLzkXQpwjqU5-300" value="" style="endArrow=classic;html=1;rounded=0;entryX=0.5;entryY=1;entryDx=0;entryDy=0;entryPerimeter=0;" edge="1" parent="1" target="I6M3-v00xLzkXQpwjqU5-298">
          <mxGeometry width="50" height="50" relative="1" as="geometry">
            <mxPoint x="590" y="1310" as="sourcePoint" />
            <mxPoint x="640" y="1260" as="targetPoint" />
            <Array as="points">
              <mxPoint x="1110" y="1310" />
            </Array>
          </mxGeometry>
        </mxCell>
        <mxCell id="I6M3-v00xLzkXQpwjqU5-308" style="edgeStyle=orthogonalEdgeStyle;rounded=0;orthogonalLoop=1;jettySize=auto;html=1;exitX=0.5;exitY=0;exitDx=0;exitDy=0;entryX=0.5;entryY=0.5;entryDx=0;entryDy=15;entryPerimeter=0;" edge="1" parent="1" source="I6M3-v00xLzkXQpwjqU5-305" target="I6M3-v00xLzkXQpwjqU5-289">
          <mxGeometry relative="1" as="geometry" />
        </mxCell>
        <mxCell id="I6M3-v00xLzkXQpwjqU5-305" value="" style="rounded=1;whiteSpace=wrap;html=1;rotation=90;" vertex="1" parent="1">
          <mxGeometry x="1130" y="1152.81" width="120" height="30" as="geometry" />
        </mxCell>
        <mxCell id="I6M3-v00xLzkXQpwjqU5-306" value="Linear Layer (W&lt;sub&gt;o&lt;/sub&gt;)" style="text;html=1;strokeColor=none;fillColor=none;align=center;verticalAlign=middle;whiteSpace=wrap;rounded=0;rotation=90;" vertex="1" parent="1">
          <mxGeometry x="1130" y="1157.81" width="120" height="20" as="geometry" />
        </mxCell>
        <mxCell id="I6M3-v00xLzkXQpwjqU5-310" value="&lt;span style=&quot;font-size: 16px;&quot;&gt;Parser&lt;/span&gt;" style="text;whiteSpace=wrap;html=1;fillColor=#d5e8d4;strokeColor=none;rounded=1;align=center;" vertex="1" parent="1">
          <mxGeometry x="840" y="1325" width="80" height="35" as="geometry" />
        </mxCell>
      </root>
    </mxGraphModel>
  </diagram>
</mxfile>
